HIERARCHY
ROOT Hips
{
	OFFSET 0.00000 0.00000 0.00000
	CHANNELS 6 Xposition Yposition Zposition Zrotation Yrotation Xrotation 
	JOINT LHipJoint
	{
		OFFSET 0 0 0
		CHANNELS 3 Zrotation Yrotation Xrotation
		JOINT LeftHip
		{
			OFFSET 1.60223 -1.58443 0.78595
			CHANNELS 3 Zrotation Yrotation Xrotation
			JOINT LeftKnee
			{
				OFFSET 2.21690 -6.09089 0.00000
				CHANNELS 3 Zrotation Yrotation Xrotation
				JOINT LeftAnkle
				{
					OFFSET 2.34805 -6.45122 0.00000
					CHANNELS 3 Zrotation Yrotation Xrotation
					JOINT LeftToe
					{
						OFFSET 0.35452 -0.97402 1.38549
						CHANNELS 3 Zrotation Yrotation Xrotation
						End Site
						{
							OFFSET 0.00000 -0.00000 0.82816
						}
					}
				}
			}
		}
	}
	JOINT RHipJoint
	{
		OFFSET 0 0 0
		CHANNELS 3 Zrotation Yrotation Xrotation
		JOINT RightHip
		{
			OFFSET -1.56524 -1.58443 0.78595
			CHANNELS 3 Zrotation Yrotation Xrotation
			JOINT RightKnee
			{
				OFFSET -2.15558 -5.92241 0.00000
				CHANNELS 3 Zrotation Yrotation Xrotation
				JOINT RightAnkle
				{
					OFFSET -2.35077 -6.45870 0.00000
					CHANNELS 3 Zrotation Yrotation Xrotation
					JOINT RightToe
					{
						OFFSET -0.26910 -0.73935 1.33295
						CHANNELS 3 Zrotation Yrotation Xrotation
						End Site
						{
							OFFSET -0.00000 -0.00000 0.75962
						}
					}
				}
			}
		}
	}
	JOINT lowerback
	{
		OFFSET 0 0 0
		CHANNELS 3 Zrotation Yrotation Xrotation
		JOINT Chest
		{
			OFFSET -0.05489 1.97104 -0.02993
			CHANNELS 3 Zrotation Yrotation Xrotation
			JOINT Chest2
			{
				OFFSET -0.00702 1.94230 0.13626
				CHANNELS 3 Zrotation Yrotation Xrotation
				JOINT lowerneck
				{
					OFFSET 0 0 0
					CHANNELS 3 Zrotation Yrotation Xrotation
					JOINT Neck
					{
						OFFSET -0.07858 1.62869 -0.02510
						CHANNELS 3 Zrotation Yrotation Xrotation
						JOINT Head
						{
							OFFSET 0.13978 1.59213 -0.29859
							CHANNELS 3 Zrotation Yrotation Xrotation
							End Site
							{
								OFFSET 0.05353 1.64420 -0.10000
							}
						}
					}
				}
				JOINT LeftCollar
				{
					OFFSET 0 0 0
					CHANNELS 3 Zrotation Yrotation Xrotation
					JOINT LeftShoulder
					{
						OFFSET 3.48263 1.15278 0.52941
CHANNELS 3 Zrotation Xrotation Yrotation
						JOINT LeftElbow
						{
OFFSET 0 -4.592070 -0.000000
CHANNELS 3 Zrotation Xrotation Yrotation
							JOINT LeftWrist
							{
OFFSET 0 -2.981090 -0.000000
CHANNELS 3 Zrotation Xrotation Yrotation
								JOINT lhand
								{
									OFFSET 0 0 0
CHANNELS 3 Zrotation Xrotation Yrotation
									JOINT LFingers
									{
OFFSET 0 -0.480200 -0.000000
CHANNELS 3 Zrotation Xrotation Yrotation
										End Site
										{
OFFSET 0 -0.387150 -0.000000
										}
									}
								}
								JOINT LThumb
								{
OFFSET 0 0.000000 0.000000
CHANNELS 3 Zrotation Xrotation Yrotation
									End Site
									{
OFFSET 0 -0.393060 0.393060
									}
								}
							}
						}
					}
				}
				JOINT RightCollar
				{
					OFFSET 0 0 0
					CHANNELS 3 Zrotation Yrotation Xrotation
					JOINT RightShoulder
					{
						OFFSET -3.52496 1.12722 0.24548
CHANNELS 3 Zrotation Xrotation Yrotation
						JOINT RightElbow
						{
OFFSET 0 -4.765080 -0.000000
CHANNELS 3 Zrotation Xrotation Yrotation
							JOINT RightWrist
							{
OFFSET 0 -2.789020 -0.000000
CHANNELS 3 Zrotation Xrotation Yrotation
								JOINT rhand
								{
									OFFSET 0 0 0
CHANNELS 3 Zrotation Xrotation Yrotation
									JOINT RFingers
									{
OFFSET 0 -0.721300 -0.000000
CHANNELS 3 Zrotation Xrotation Yrotation
										End Site
										{
OFFSET 0 -0.581530 -0.000000
										}
									}
								}
								JOINT RThumb
								{
OFFSET 0 0.000000 0.000000
CHANNELS 3 Zrotation Xrotation Yrotation
									End Site
									{
OFFSET 0 -0.590410 0.590410
									}
								}
							}
						}
					}
				}
			}
		}
	}
}
MOTION
Frames: 4
Frame Time: 0.008333333333333333
11.037927 15.970100 -5.941601 540.527848 -137.288674 -894.764379 0.000000 0.000000 0.000000 -24.972112 4.975909 -32.763852 6.498899 14.893246 46.949223 0.628560 12.382704 -24.122916 0.276880 -3.378101 -9.333712 0.000000 0.000000 0.000000 20.942843 -7.225761 -3.053897 -3.862631 -11.964448 35.621491 0.285013 -11.010818 -10.141660 -0.955715 6.204600 -17.385313 3.267338 -1.110310 4.767919 -3.462873 -1.568242 -6.891635 -5.346226 -1.209993 -10.235769 -3.793903 2.991050 3.169009 11.584561 2.620890 13.574597 4.213299 1.480507 3.251532 0.000000 0.000000 0.000000 8.294668 -10.463253 34.012018 29.176044 -40.171328 10.876072 54.806435 72.876833 -31.859171 0.000000 0.000000 0.000000 -7.125000 0.000000 0.000000 44.385347 73.031263 -31.077378 0.000000 0.000000 0.000000 -2.391971 20.634298 38.797540 -69.530325 -58.355458 -42.370693 23.484866 25.271937 -86.612904 0.000000 0.000000 0.000000 7.125000 0.000000 0.000000 30.793384 -51.354846 44.679811
11.282001 16.044324 -6.650206 534.818801 -127.166139 -888.606701 0.000000 0.000000 0.000000 -19.082034 7.645968 -43.326496 8.595641 16.533559 54.670248 -0.503711 17.737823 -20.018250 0.023577 0.443342 1.218769 0.000000 0.000000 0.000000 24.006760 -4.441502 -1.413344 -2.170333 -9.207540 26.450295 -0.131210 -6.469595 -12.119237 -2.236579 9.339152 -26.864619 4.159880 -1.309805 4.753354 -2.402823 -1.666781 -6.933846 -4.685977 -1.279521 -10.277625 -1.989578 6.231443 2.186453 10.448888 7.213832 12.508893 3.848659 3.781990 3.095123 0.000000 0.000000 0.000000 12.147806 -8.216425 37.356564 26.153342 -37.358777 8.980910 53.493159 73.848599 -32.482246 0.000000 0.000000 0.000000 -7.125000 0.000000 0.000000 41.539813 73.377158 -29.189983 0.000000 0.000000 0.000000 -5.990539 15.561583 43.102117 -74.194809 -59.029454 -46.357412 42.288963 43.487431 -88.136726 0.000000 0.000000 0.000000 7.125000 0.000000 0.000000 31.841422 -52.859586 45.972025
11.531482 15.910787 -7.300423 524.763240 -116.101297 -877.689801 0.000000 0.000000 0.000000 -12.623430 12.118441 -52.619545 10.456540 17.657813 61.002494 -0.770179 19.432774 -20.050616 0.262022 3.281552 9.064613 0.000000 0.000000 0.000000 25.957589 -0.929239 -4.516797 -2.096490 -9.063878 25.995619 -0.477519 4.526627 -12.486787 -2.066766 8.998841 -25.795228 4.296511 -0.668213 4.402891 -1.383200 -0.729693 -7.284424 -3.789972 -0.802265 -10.323977 0.202346 9.143269 1.942000 9.012766 11.309731 11.561247 3.078671 5.839189 2.851992 0.000000 0.000000 0.000000 16.167068 -5.392967 40.798873 24.664540 -35.857954 8.093057 53.725600 75.116148 -34.195314 0.000000 0.000000 0.000000 -7.125000 0.000000 0.000000 44.708709 75.199897 -33.214912 0.000000 0.000000 0.000000 -9.509257 10.872162 47.234425 -81.180320 -59.695989 -52.370145 83.047863 83.497945 -88.601621 0.000000 0.000000 0.000000 7.125000 0.000000 0.000000 32.853168 -53.835043 47.284706
11.733520 15.840655 -7.807459 506.492481 -106.985728 -860.267699 0.000000 0.000000 0.000000 -6.749812 17.463866 -53.641849 10.054645 17.438481 59.668139 -0.359727 15.497844 -17.774512 0.047148 -1.381256 -3.798772 0.000000 0.000000 0.000000 27.210233 -3.286058 -6.994259 -2.047284 -8.963175 25.680637 0.204478 16.773827 -9.752331 -1.358809 7.359930 -20.794575 4.489721 -0.333176 5.470202 -0.585819 -0.137466 -7.007905 -3.120577 -0.491322 -10.589449 1.357007 12.041214 0.932028 8.587063 15.192397 11.696042 2.859843 7.816327 3.022957 0.000000 0.000000 0.000000 19.667264 -2.115689 45.958097 23.095060 -34.191433 7.192190 52.908188 74.940406 -35.856185 0.000000 0.000000 0.000000 -7.125000 0.000000 0.000000 44.792615 76.713228 -34.572737 0.000000 0.000000 0.000000 -12.390560 6.594686 50.838615 -86.128195 -59.942724 -56.647541 151.031086 -150.827539 88.574529 0.000000 0.000000 0.000000 7.125000 0.000000 0.000000 33.312401 -55.288794 47.601569
